<?xml version="1.0" encoding="utf-8"?>
<!-- Generator: Adobe Illustrator 23.0.3, SVG Export Plug-In . SVG Version: 6.00 Build 0)  -->
<svg version="1.1" id="Capa_2" xmlns="http://www.w3.org/2000/svg" xmlns:xlink="http://www.w3.org/1999/xlink" x="0px" y="0px"
	 viewBox="0 0 2050 2196" style="enable-background:new 0 0 2050 2196;" xml:space="preserve">
<style type="text/css">
	.st0{fill:#EEB963;}
	.st1{fill:#E3945D;}
	.st2{fill:#626CAF;}
	.st3{fill:#F9E5C0;}
	.st4{fill:#4A5786;}
	.st5{fill:#8A8EC5;}
	.st6{fill:#FFFFFF;}
</style>
<g>
	<g>
		<path class="st0" d="M1318.2,1120.1h-228.7c-0.9,0.8-1.7,1.6-2.7,2.3v772.4h234.1v-772.4C1320,1121.7,1319.1,1120.9,1318.2,1120.1
			z"/>
		<path class="st0" d="M783.2,1120.1h-98.6v774.7h101.3v-772.4C784.9,1121.7,784,1120.9,783.2,1120.1z"/>
		<path class="st0" d="M1624.6,1120.1c-0.9,0.8-1.7,1.6-2.7,2.3v772.4h35.3v-774.7H1624.6z"/>
		<path class="st0" d="M1585.8,1120.1H1357c-0.8,0.8-1.7,1.6-2.7,2.3v772.4h234.1v-772.4C1587.5,1121.7,1586.6,1120.9,1585.8,1120.1
			z"/>
		<path class="st0" d="M1050.7,1120.1H822c-0.9,0.8-1.7,1.6-2.7,2.3v772.4h234.1v-772.4C1052.4,1121.7,1051.6,1120.9,1050.7,1120.1z
			"/>
		<polygon class="st0" points="562.9,301 536.3,527.6 589.5,527.6 		"/>
		<path class="st0" d="M574.1,602.3v-29.6c0-5.4,4.3-9.7,9.7-9.7c5.4,0,9.7,4.3,9.7,9.7v14.3c12.4-11.8,22.5-26.1,29.4-41.9H488.8
			v75c6.3,1,12.8,1.6,19.3,1.6C532.2,621.7,554.9,614.6,574.1,602.3z"/>
		<path class="st0" d="M469.3,730.6v-59.7c0-5.4,4.3-9.7,9.7-9.7c5.4,0,9.7,4.3,9.7,9.7v61.5h-16.4c18.7,10.6,40,16.5,61.8,16.5h0.9
			c33,0,65-13.3,88.4-36.6c1.1-1.1,2.1-2.3,3.2-3.5v-38c0-5.4,4.3-9.7,9.7-9.7c5.4,0,9.7,4.3,9.7,9.7v10.3
			c5.9-11.5,10.1-23.8,12.2-36.6H436.9v57.9c2.8,3.4,5.7,6.7,8.8,9.9C452.8,719.5,460.8,725.5,469.3,730.6z"/>
		<path class="st1" d="M678.4,644.6h-20.1c-2.2,12.8-6.3,25.1-12.2,36.6v-10.3c0-5.4-4.3-9.7-9.7-9.7c-5.4,0-9.7,4.3-9.7,9.7v38
			c-1.1,1.1-2.1,2.3-3.2,3.5C600.1,735.7,568,749,535,749h-0.9c-21.8,0-43.1-5.9-61.8-16.5h16.4v-61.5c0-5.4-4.3-9.7-9.7-9.7
			c-5.4,0-9.7,4.3-9.7,9.7v59.7c-8.5-5.1-16.4-11.2-23.5-18.3c-3.1-3.1-6.1-6.4-8.8-9.9v53.6h241.4V644.6z"/>
		<path class="st1" d="M626.5,545.2H623c-6.9,15.9-17,30.1-29.4,41.9v-14.3c0-5.4-4.3-9.7-9.7-9.7c-5.4,0-9.7,4.3-9.7,9.7v29.6
			c-19.3,12.2-41.9,19.4-66,19.4c-6.6,0-13-0.5-19.3-1.6v6.8h137.7V545.2z"/>
		<path class="st2" d="M714.3,773.7c4.9,0,8.8-3.9,8.8-8.8c0-4.9-3.9-8.8-8.8-8.8h-35.9H436.9H401c-4.9,0-8.8,3.9-8.8,8.8
			c0,4.9,3.9,8.8,8.8,8.8h9.1h295H714.3z"/>
		<path class="st2" d="M678.4,644.6h8.9c4.9,0,8.8-3.9,8.8-8.8s-3.9-8.8-8.8-8.8h-60.8H488.8h-55.9c-4.9,0-8.8,3.9-8.8,8.8
			s3.9,8.8,8.8,8.8h4h221.3H678.4z"/>
		<path class="st2" d="M623,545.2h3.5h9.4c4.9,0,8.8-3.9,8.8-8.8s-3.9-8.8-8.8-8.8h-46.3h-53.2h-52.1c-4.9,0-8.8,3.9-8.8,8.8
			s3.9,8.8,8.8,8.8h4.5H623z"/>
		<path class="st0" d="M662.2,1425.7c0-233.2-180.8-295.2-231.6-310.5V1735c51.4-15.2,98.8-42.9,137.1-81.2
			C628,1593.6,662.2,1510.9,662.2,1425.7z"/>
		<path class="st1" d="M684.6,1073.1h20.5V773.7h-295v299.4h20.5v42.1c50.7,15.3,231.6,77.3,231.6,310.5
			c0,85.2-34.3,167.9-94.5,228.1c-38.3,38.3-85.7,66.1-137.1,81.2v159.8h253.9v-774.7V1073.1z"/>
		<path class="st1" d="M822,1120.1c5.2-5.1,8.5-12.1,8.5-19.9c0-8.9-4.1-16.8-10.6-21.9l-17.3-147.7l-17.3,147.7
			c-6.4,5.1-10.6,13-10.6,21.9c0,7.9,3.3,14.9,8.5,19.9c0.9,0.8,1.7,1.6,2.7,2.3v772.4h33.4v-772.4
			C820.2,1121.7,821.1,1120.9,822,1120.1z"/>
		<path class="st1" d="M1089.5,1120.1c5.2-5.1,8.5-12.1,8.5-19.9c0-8.9-4.1-16.8-10.6-21.9l-17.3-147.7l-17.3,147.7
			c-6.4,5.1-10.6,13-10.6,21.9c0,7.9,3.3,14.9,8.5,19.9c0.9,0.8,1.7,1.6,2.7,2.3v772.4h33.4v-772.4
			C1087.8,1121.7,1088.7,1120.9,1089.5,1120.1z"/>
		<path class="st1" d="M1357,1120.1c5.2-5.1,8.5-12.1,8.5-19.9c0-8.9-4.1-16.8-10.6-21.9l-17.3-147.7l-17.3,147.7
			c-6.4,5.1-10.6,13-10.6,21.9c0,7.9,3.3,14.9,8.5,19.9c0.8,0.8,1.7,1.6,2.7,2.3v772.4h33.4v-772.4
			C1355.3,1121.7,1356.2,1120.9,1357,1120.1z"/>
		<path class="st1" d="M1624.6,1120.1c5.2-5.1,8.5-12.1,8.5-19.9c0-8.9-4.1-16.8-10.6-21.9l-17.3-147.7l-17.3,147.7
			c-6.5,5.1-10.6,13-10.6,21.9c0,7.9,3.3,14.9,8.5,19.9c0.9,0.8,1.7,1.6,2.7,2.3v772.4h33.4v-772.4
			C1622.8,1121.7,1623.7,1120.9,1624.6,1120.1z"/>
	</g>
	<g>
		<path class="st0" d="M692.5,918c0,74.5-60.4,134.8-134.8,134.8c-74.5,0-134.8-60.4-134.8-134.8c0-74.5,60.4-134.8,134.8-134.8
			C632.1,783.2,692.5,843.6,692.5,918z"/>
		<circle class="st3" cx="557.6" cy="918" r="120.4"/>
		<path class="st2" d="M576.1,881.6l2,1.3l-20.5,30c-0.1,0-0.1,0-0.2,0c-3,0-5.5,2.5-5.5,5.5c0,0.5,0.2,0.9,0.3,1.4l-34.9,37.5
			l-1.7-1.6l-9.2,17.9l17.2-10.4l-1.7-1.6l35.2-37.8c0.1,0,0.3,0.1,0.4,0.1c3,0,5.5-2.5,5.5-5.5c0-0.6-0.2-1.1-0.3-1.7l20.7-30.3
			l2,1.3l6.4-19.1L576.1,881.6z"/>
		<ellipse class="st2" cx="557.6" cy="814.8" rx="2.4" ry="12.8"/>
		<path class="st2" d="M560.1,1018.2c0,7.1-1.1,12.8-2.4,12.8s-2.4-5.7-2.4-12.8c0-7.1,1.1-12.8,2.4-12.8S560.1,1011.1,560.1,1018.2
			z"/>
		<path class="st2" d="M659.3,918.9c-7.1,0-12.8-1.1-12.8-2.4s5.7-2.4,12.8-2.4c7.1,0,12.8,1.1,12.8,2.4S666.4,918.9,659.3,918.9z"
			/>
		<path class="st2" d="M455.9,918.9c-7.1,0-12.8-1.1-12.8-2.4s5.7-2.4,12.8-2.4c7.1,0,12.8,1.1,12.8,2.4S463,918.9,455.9,918.9z"/>
		<path class="st2" d="M631.3,846.3c-5,5-9.8,8.3-10.8,7.3c-1-0.9,2.3-5.8,7.3-10.8c5-5,9.8-8.3,10.8-7.3
			C639.6,836.5,636.3,841.3,631.3,846.3z"/>
		<path class="st2" d="M487.4,990.1c-5,5-9.8,8.3-10.8,7.3c-1-1,2.3-5.8,7.3-10.8c5-5,9.8-8.3,10.8-7.3
			C495.7,980.3,492.4,985.1,487.4,990.1z"/>
		<path class="st2" d="M627.8,990.1c-5-5-8.3-9.8-7.3-10.8c1-1,5.8,2.3,10.8,7.3c5,5,8.3,9.8,7.3,10.8
			C637.7,998.4,632.8,995.1,627.8,990.1z"/>
		<path class="st2" d="M484,846.3c-5-5-8.3-9.8-7.3-10.8c1-1,5.8,2.3,10.8,7.3c5,5,8.3,9.8,7.3,10.8
			C493.8,854.6,489,851.3,484,846.3z"/>
		<path class="st2" d="M599.7,823.9c-2.8,6.5-6,11.4-7.3,10.8c-1.2-0.5,0-6.2,2.8-12.7c2.8-6.5,6-11.4,7.3-10.8
			C603.7,811.7,602.5,817.4,599.7,823.9z"/>
		<path class="st2" d="M520,1011c-2.8,6.5-6,11.4-7.3,10.8c-1.2-0.5,0-6.2,2.8-12.7c2.8-6.5,6-11.4,7.3-10.8
			C524,998.8,522.8,1004.5,520,1011z"/>
		<path class="st2" d="M650.3,958.6c-6.5-2.8-11.4-6-10.8-7.3c0.5-1.2,6.2,0,12.7,2.8c6.5,2.8,11.4,6,10.8,7.3
			C662.5,962.6,656.8,961.4,650.3,958.6z"/>
		<path class="st2" d="M463.1,878.9c-6.5-2.8-11.4-6-10.8-7.3c0.5-1.2,6.2,0,12.7,2.8c6.5,2.8,11.4,6,10.8,7.3
			C475.3,882.9,469.6,881.7,463.1,878.9z"/>
		<path class="st2" d="M652.9,880.8c-6.6,2.6-12.3,3.8-12.8,2.5c-0.5-1.3,4.4-4.4,11-7c6.6-2.6,12.3-3.8,12.8-2.5
			C664.4,875,659.4,878.1,652.9,880.8z"/>
		<path class="st2" d="M464.2,956.7c-6.6,2.6-12.3,3.8-12.8,2.5c-0.5-1.2,4.4-4.4,11-7c6.6-2.6,12.3-3.8,12.8-2.5
			C475.7,951,470.8,954.1,464.2,956.7z"/>
		<path class="st2" d="M593.4,1011.8c-2.6-6.6-3.8-12.3-2.5-12.8c1.3-0.5,4.4,4.4,7,11c2.6,6.6,3.8,12.3,2.5,12.8
			C599.1,1023.2,596,1018.3,593.4,1011.8z"/>
		<path class="st2" d="M517.4,823.1c-2.6-6.6-3.8-12.3-2.5-12.8c1.3-0.5,4.4,4.4,7,11c2.6,6.6,3.8,12.3,2.5,12.8
			C523.2,834.5,520,829.6,517.4,823.1z"/>
		<path class="st1" d="M541.1,670.9c0-5.4-4.3-9.7-9.7-9.7c-5.4,0-9.7,4.3-9.7,9.7v61.5h19.4V670.9z"/>
		<path class="st1" d="M593.6,670.9c0-5.4-4.3-9.7-9.7-9.7c-5.4,0-9.7,4.3-9.7,9.7v61.5h19.4V670.9z"/>
		<path class="st1" d="M541.1,604.5v-31.7c0-5.4-4.3-9.7-9.7-9.7c-5.4,0-9.7,4.3-9.7,9.7v31.7H541.1z"/>
		<path class="st1" d="M488.7,1331.2c0,5.4-4.3,9.7-9.7,9.7c-5.4,0-9.7-4.3-9.7-9.7v-170.3c0-5.4,4.3-9.7,9.7-9.7
			c5.4,0,9.7,4.4,9.7,9.7V1331.2z"/>
		<path class="st1" d="M541.1,1331.2c0,5.4-4.3,9.7-9.7,9.7c-5.4,0-9.7-4.3-9.7-9.7v-134.1c0-5.4,4.3-9.7,9.7-9.7
			c5.4,0,9.7,4.4,9.7,9.7V1331.2z"/>
		<path class="st1" d="M593.6,1331.2c0,5.4-4.3,9.7-9.7,9.7c-5.4,0-9.7-4.3-9.7-9.7v-75.4c0-5.4,4.3-9.7,9.7-9.7
			c5.4,0,9.7,4.4,9.7,9.7V1331.2z"/>
		<path class="st1" d="M646,1331.2c0,5.4-4.3,9.7-9.7,9.7c-5.4,0-9.7-4.3-9.7-9.7v-2.4c0-5.4,4.3-9.7,9.7-9.7c5.4,0,9.7,4.3,9.7,9.7
			V1331.2z"/>
		<path class="st1" d="M488.7,1634.5c0,5.4-4.3,9.7-9.7,9.7c-5.4,0-9.7-4.3-9.7-9.7v-224.6c0-5.4,4.3-9.7,9.7-9.7
			c5.4,0,9.7,4.3,9.7,9.7V1634.5z"/>
		<path class="st1" d="M541.1,1634.5c0,5.4-4.3,9.7-9.7,9.7c-5.4,0-9.7-4.3-9.7-9.7v-224.6c0-5.4,4.3-9.7,9.7-9.7
			c5.4,0,9.7,4.3,9.7,9.7V1634.5z"/>
		<path class="st1" d="M593.6,1605c0,5.4-4.3,9.7-9.7,9.7c-5.4,0-9.7-4.3-9.7-9.7v-195c0-5.4,4.3-9.7,9.7-9.7c5.4,0,9.7,4.3,9.7,9.7
			V1605z"/>
		<path class="st1" d="M646,1507.5c0,5.4-4.3,9.7-9.7,9.7c-5.4,0-9.7-4.4-9.7-9.7v-97.5c0-5.4,4.3-9.7,9.7-9.7
			c5.4,0,9.7,4.3,9.7,9.7V1507.5z"/>
		<rect x="851.5" y="1184.3" class="st1" width="173.2" height="282.8"/>
		<rect x="866.7" y="1202.5" class="st2" width="63.3" height="246.5"/>
		<rect x="945.2" y="1202.5" class="st2" width="64.4" height="246.5"/>
		<path class="st4" d="M930,1436.4c-31,9.5-63.3,12.6-63.3,12.6H930V1436.4z"/>
		<path class="st4" d="M993.9,1202.5c3.9,3-37.1,139.2-18.4,163.4c24.9,32.3,1.2,52.7-30.4,65.2v17.9h64.4v-246.5H993.9z"/>
		<path class="st5" d="M897.1,1317.7c0,53.9-4.1,97.6-9.2,97.6c-5.1,0-9.2-43.7-9.2-97.6c0-53.9,4.1-97.6,9.2-97.6
			C893,1220,897.1,1263.7,897.1,1317.7z"/>
		<rect x="851.5" y="1547.8" class="st1" width="173.2" height="282.8"/>
		<rect x="866.7" y="1565.9" class="st2" width="63.3" height="246.5"/>
		<rect x="945.2" y="1565.9" class="st2" width="64.4" height="246.5"/>
		<path class="st4" d="M930,1799.8c-31,9.5-63.3,12.6-63.3,12.6H930V1799.8z"/>
		<path class="st4" d="M993.9,1565.9c3.9,3-37.1,139.2-18.4,163.4c24.9,32.3,1.2,52.7-30.4,65.2v17.9h64.4v-246.5H993.9z"/>
		<path class="st5" d="M897.1,1681.1c0,53.9-4.1,97.6-9.2,97.6c-5.1,0-9.2-43.7-9.2-97.6c0-53.9,4.1-97.6,9.2-97.6
			C893,1583.5,897.1,1627.2,897.1,1681.1z"/>
		<rect x="1116.4" y="1184.3" class="st1" width="173.2" height="282.8"/>
		<rect x="1131.6" y="1202.5" class="st2" width="63.3" height="246.5"/>
		<rect x="1210.1" y="1202.5" class="st2" width="64.4" height="246.5"/>
		<path class="st4" d="M1194.9,1436.4c-31,9.5-63.3,12.6-63.3,12.6h63.3V1436.4z"/>
		<path class="st4" d="M1258.9,1202.5c3.9,3-37.1,139.2-18.4,163.4c24.9,32.3,1.2,52.7-30.4,65.2v17.9h64.4v-246.5H1258.9z"/>
		<path class="st5" d="M1162.1,1317.7c0,53.9-4.1,97.6-9.2,97.6c-5.1,0-9.2-43.7-9.2-97.6c0-53.9,4.1-97.6,9.2-97.6
			C1158,1220,1162.1,1263.7,1162.1,1317.7z"/>
		<rect x="1116.4" y="1547.8" class="st1" width="173.2" height="282.8"/>
		<rect x="1131.6" y="1565.9" class="st2" width="63.3" height="246.5"/>
		<rect x="1210.1" y="1565.9" class="st2" width="64.4" height="246.5"/>
		<path class="st4" d="M1194.9,1799.8c-31,9.5-63.3,12.6-63.3,12.6h63.3V1799.8z"/>
		<path class="st4" d="M1258.9,1565.9c3.9,3-37.1,139.2-18.4,163.4c24.9,32.3,1.2,52.7-30.4,65.2v17.9h64.4v-246.5H1258.9z"/>
		<path class="st5" d="M1162.1,1681.1c0,53.9-4.1,97.6-9.2,97.6c-5.1,0-9.2-43.7-9.2-97.6c0-53.9,4.1-97.6,9.2-97.6
			C1158,1583.5,1162.1,1627.2,1162.1,1681.1z"/>
		<rect x="1381.4" y="1184.3" class="st1" width="173.2" height="282.8"/>
		<rect x="1396.5" y="1202.5" class="st2" width="63.3" height="246.5"/>
		<rect x="1475" y="1202.5" class="st2" width="64.4" height="246.5"/>
		<path class="st4" d="M1459.8,1436.4c-31,9.5-63.3,12.6-63.3,12.6h63.3V1436.4z"/>
		<path class="st4" d="M1523.8,1202.5c3.9,3-37.1,139.2-18.4,163.4c24.9,32.3,1.2,52.7-30.4,65.2v17.9h64.4v-246.5H1523.8z"/>
		<path class="st5" d="M1427,1317.7c0,53.9-4.1,97.6-9.2,97.6c-5.1,0-9.2-43.7-9.2-97.6c0-53.9,4.1-97.6,9.2-97.6
			C1422.9,1220,1427,1263.7,1427,1317.7z"/>
		<rect x="1381.4" y="1547.8" class="st1" width="173.2" height="282.8"/>
		<rect x="1396.5" y="1565.9" class="st2" width="63.3" height="246.5"/>
		<rect x="1475" y="1565.9" class="st2" width="64.4" height="246.5"/>
		<path class="st4" d="M1459.8,1799.8c-31,9.5-63.3,12.6-63.3,12.6h63.3V1799.8z"/>
		<path class="st4" d="M1523.8,1565.9c3.9,3-37.1,139.2-18.4,163.4c24.9,32.3,1.2,52.7-30.4,65.2v17.9h64.4v-246.5H1523.8z"/>
		<path class="st5" d="M1427,1681.1c0,53.9-4.1,97.6-9.2,97.6c-5.1,0-9.2-43.7-9.2-97.6c0-53.9,4.1-97.6,9.2-97.6
			C1422.9,1583.5,1427,1627.2,1427,1681.1z"/>
		<path class="st3" d="M728.7,1509.8c0,198-5.3,358.6-11.8,358.6c-6.5,0-11.8-160.5-11.8-358.6s5.3-358.6,11.8-358.6
			C723.4,1151.2,728.7,1311.8,728.7,1509.8z"/>
		<ellipse class="st3" cx="938.1" cy="1148.7" rx="86.6" ry="10.3"/>
		<path class="st3" d="M1289.6,1148.7c0,5.7-38.8,10.3-86.6,10.3c-47.8,0-86.6-4.6-86.6-10.3s38.8-10.3,86.6-10.3
			C1250.9,1138.3,1289.6,1142.9,1289.6,1148.7z"/>
		<ellipse class="st3" cx="1468" cy="1148.7" rx="86.6" ry="10.3"/>
		<path class="st6" d="M528.7,896.1c-13.2,16.8-31,24.9-39.8,18c-8.8-6.9-5.2-26.1,8-42.9c13.2-16.8,31-24.9,39.8-18
			C545.5,860.1,541.9,879.3,528.7,896.1z"/>
		<path class="st3" d="M566.6,457.9c0,28.4-2.6,51.5-5.8,51.5c-3.2,0-5.8-23-5.8-51.5c0-28.4,2.6-51.5,5.8-51.5
			C563.9,406.5,566.6,429.5,566.6,457.9z"/>
		<path class="st0" d="M665.2,1092.8c0,7.5-48.1,13.6-107.5,13.6c-59.4,0-107.5-6.1-107.5-13.6c0-7.5,48.1-13.6,107.5-13.6
			C617,1079.2,665.2,1085.3,665.2,1092.8z"/>
		<path class="st0" d="M665.2,1854.8c0,7.5-48.1,13.6-107.5,13.6c-59.4,0-107.5-6.1-107.5-13.6s48.1-13.6,107.5-13.6
			C617,1841.2,665.2,1847.3,665.2,1854.8z"/>
	</g>
</g>
</svg>
