<svg xmlns="http://www.w3.org/2000/svg" xml:space="preserve" id="Capa_2" x="0" y="0" viewBox="0 0 2050 2196"><style>.st0{fill:#eeb963}.st1{fill:#e3945d}.st2{fill:#626caf}.st3{fill:#f9e5c0}.st4{fill:#4a5786}.st5{fill:#8a8ec5}</style><path d="M1318.2 1120.1h-228.7c-.9.8-1.7 1.6-2.7 2.3v772.4h234.1v-772.4c-.9-.7-1.8-1.5-2.7-2.3m-535 0h-98.6v774.7h101.3v-772.4c-1-.7-1.9-1.5-2.7-2.3m841.4 0c-.9.8-1.7 1.6-2.7 2.3v772.4h35.3v-774.7zm-38.8 0H1357c-.8.8-1.7 1.6-2.7 2.3v772.4h234.1v-772.4c-.9-.7-1.8-1.5-2.6-2.3m-535.1 0H822c-.9.8-1.7 1.6-2.7 2.3v772.4h234.1v-772.4c-1-.7-1.8-1.5-2.7-2.3M562.9 301l-26.6 226.6h53.2zm11.2 301.3v-29.6c0-5.4 4.3-9.7 9.7-9.7s9.7 4.3 9.7 9.7V587c12.4-11.8 22.5-26.1 29.4-41.9H488.8v75c6.3 1 12.8 1.6 19.3 1.6 24.1 0 46.8-7.1 66-19.4M469.3 730.6v-59.7c0-5.4 4.3-9.7 9.7-9.7s9.7 4.3 9.7 9.7v61.5h-16.4c18.7 10.6 40 16.5 61.8 16.5h.9c33 0 65-13.3 88.4-36.6 1.1-1.1 2.1-2.3 3.2-3.5v-38c0-5.4 4.3-9.7 9.7-9.7s9.7 4.3 9.7 9.7v10.3c5.9-11.5 10.1-23.8 12.2-36.6H436.9v57.9c2.8 3.4 5.7 6.7 8.8 9.9 7.1 7.2 15.1 13.2 23.6 18.3" class="st0"/><path d="M678.4 644.6h-20.1c-2.2 12.8-6.3 25.1-12.2 36.6v-10.3c0-5.4-4.3-9.7-9.7-9.7s-9.7 4.3-9.7 9.7v38c-1.1 1.1-2.1 2.3-3.2 3.5C600.1 735.7 568 749 535 749h-.9c-21.8 0-43.1-5.9-61.8-16.5h16.4V671c0-5.4-4.3-9.7-9.7-9.7s-9.7 4.3-9.7 9.7v59.7c-8.5-5.1-16.4-11.2-23.5-18.3-3.1-3.1-6.1-6.4-8.8-9.9v53.6h241.4zm-51.9-99.4H623c-6.9 15.9-17 30.1-29.4 41.9v-14.3c0-5.4-4.3-9.7-9.7-9.7s-9.7 4.3-9.7 9.7v29.6c-19.3 12.2-41.9 19.4-66 19.4-6.6 0-13-.5-19.3-1.6v6.8h137.7v-81.8z" class="st1"/><path d="M714.3 773.7c4.9 0 8.8-3.9 8.8-8.8s-3.9-8.8-8.8-8.8H401c-4.9 0-8.8 3.9-8.8 8.8s3.9 8.8 8.8 8.8zm-35.9-129.1h8.9c4.9 0 8.8-3.9 8.8-8.8s-3.9-8.8-8.8-8.8H432.9c-4.9 0-8.8 3.9-8.8 8.8s3.9 8.8 8.8 8.8zM623 545.2h12.9c4.9 0 8.8-3.9 8.8-8.8s-3.9-8.8-8.8-8.8H484.3c-4.9 0-8.8 3.9-8.8 8.8s3.9 8.8 8.8 8.8z" class="st2"/><path d="M662.2 1425.7c0-233.2-180.8-295.2-231.6-310.5V1735c51.4-15.2 98.8-42.9 137.1-81.2 60.3-60.2 94.5-142.9 94.5-228.1" class="st0"/><path d="M684.6 1073.1h20.5V773.7h-295v299.4h20.5v42.1c50.7 15.3 231.6 77.3 231.6 310.5 0 85.2-34.3 167.9-94.5 228.1-38.3 38.3-85.7 66.1-137.1 81.2v159.8h253.9v-821.7zm137.4 47c5.2-5.1 8.5-12.1 8.5-19.9 0-8.9-4.1-16.8-10.6-21.9l-17.3-147.7-17.3 147.7c-6.4 5.1-10.6 13-10.6 21.9 0 7.9 3.3 14.9 8.5 19.9.9.8 1.7 1.6 2.7 2.3v772.4h33.4v-772.4c.9-.7 1.8-1.5 2.7-2.3m267.5 0c5.2-5.1 8.5-12.1 8.5-19.9 0-8.9-4.1-16.8-10.6-21.9l-17.3-147.7-17.3 147.7c-6.4 5.1-10.6 13-10.6 21.9 0 7.9 3.3 14.9 8.5 19.9.9.8 1.7 1.6 2.7 2.3v772.4h33.4v-772.4c1-.7 1.9-1.5 2.7-2.3m267.5 0c5.2-5.1 8.5-12.1 8.5-19.9 0-8.9-4.1-16.8-10.6-21.9l-17.3-147.7-17.3 147.7c-6.4 5.1-10.6 13-10.6 21.9 0 7.9 3.3 14.9 8.5 19.9.8.8 1.7 1.6 2.7 2.3v772.4h33.4v-772.4c1-.7 1.9-1.5 2.7-2.3m267.6 0c5.2-5.1 8.5-12.1 8.5-19.9 0-8.9-4.1-16.8-10.6-21.9l-17.3-147.7-17.3 147.7c-6.5 5.1-10.6 13-10.6 21.9 0 7.9 3.3 14.9 8.5 19.9.9.8 1.7 1.6 2.7 2.3v772.4h33.4v-772.4c.9-.7 1.8-1.5 2.7-2.3" class="st1"/><path d="M692.5 918c0 74.5-60.4 134.8-134.8 134.8-74.5 0-134.8-60.4-134.8-134.8 0-74.5 60.4-134.8 134.8-134.8S692.5 843.6 692.5 918" class="st0"/><circle cx="557.6" cy="918" r="120.4" class="st3"/><path d="m576.1 881.6 2 1.3-20.5 30h-.2c-3 0-5.5 2.5-5.5 5.5 0 .5.2.9.3 1.4l-34.9 37.5-1.7-1.6-9.2 17.9 17.2-10.4-1.7-1.6 35.2-37.8c.1 0 .3.1.4.1 3 0 5.5-2.5 5.5-5.5 0-.6-.2-1.1-.3-1.7l20.7-30.3 2 1.3 6.4-19.1z" class="st2"/><ellipse cx="557.6" cy="814.8" class="st2" rx="2.4" ry="12.8"/><path d="M560.1 1018.2c0 7.1-1.1 12.8-2.4 12.8s-2.4-5.7-2.4-12.8 1.1-12.8 2.4-12.8 2.4 5.7 2.4 12.8m99.2-99.3c-7.1 0-12.8-1.1-12.8-2.4s5.7-2.4 12.8-2.4 12.8 1.1 12.8 2.4-5.7 2.4-12.8 2.4m-203.4 0c-7.1 0-12.8-1.1-12.8-2.4s5.7-2.4 12.8-2.4 12.8 1.1 12.8 2.4-5.7 2.4-12.8 2.4m175.4-72.6c-5 5-9.8 8.3-10.8 7.3-1-.9 2.3-5.8 7.3-10.8s9.8-8.3 10.8-7.3-2.3 5.8-7.3 10.8M487.4 990.1c-5 5-9.8 8.3-10.8 7.3s2.3-5.8 7.3-10.8 9.8-8.3 10.8-7.3-2.3 5.8-7.3 10.8m140.4 0c-5-5-8.3-9.8-7.3-10.8s5.8 2.3 10.8 7.3 8.3 9.8 7.3 10.8c-.9 1-5.8-2.3-10.8-7.3M484 846.3c-5-5-8.3-9.8-7.3-10.8s5.8 2.3 10.8 7.3 8.3 9.8 7.3 10.8-5.8-2.3-10.8-7.3m115.7-22.4c-2.8 6.5-6 11.4-7.3 10.8-1.2-.5 0-6.2 2.8-12.7s6-11.4 7.3-10.8c1.2.5 0 6.2-2.8 12.7M520 1011c-2.8 6.5-6 11.4-7.3 10.8-1.2-.5 0-6.2 2.8-12.7s6-11.4 7.3-10.8c1.2.5 0 6.2-2.8 12.7m130.3-52.4c-6.5-2.8-11.4-6-10.8-7.3.5-1.2 6.2 0 12.7 2.8s11.4 6 10.8 7.3c-.5 1.2-6.2 0-12.7-2.8m-187.2-79.7c-6.5-2.8-11.4-6-10.8-7.3.5-1.2 6.2 0 12.7 2.8s11.4 6 10.8 7.3c-.5 1.2-6.2 0-12.7-2.8m189.8 1.9c-6.6 2.6-12.3 3.8-12.8 2.5s4.4-4.4 11-7 12.3-3.8 12.8-2.5c.5 1.2-4.5 4.3-11 7m-188.7 75.9c-6.6 2.6-12.3 3.8-12.8 2.5-.5-1.2 4.4-4.4 11-7s12.3-3.8 12.8-2.5-4.4 4.4-11 7m129.2 55.1c-2.6-6.6-3.8-12.3-2.5-12.8s4.4 4.4 7 11 3.8 12.3 2.5 12.8c-1.3.4-4.4-4.5-7-11m-76-188.7c-2.6-6.6-3.8-12.3-2.5-12.8s4.4 4.4 7 11 3.8 12.3 2.5 12.8c-1.2.4-4.4-4.5-7-11" class="st2"/><path d="M541.1 670.9c0-5.4-4.3-9.7-9.7-9.7s-9.7 4.3-9.7 9.7v61.5h19.4zm52.5 0c0-5.4-4.3-9.7-9.7-9.7s-9.7 4.3-9.7 9.7v61.5h19.4zm-52.5-66.4v-31.7c0-5.4-4.3-9.7-9.7-9.7s-9.7 4.3-9.7 9.7v31.7zm-52.4 726.7c0 5.4-4.3 9.7-9.7 9.7s-9.7-4.3-9.7-9.7v-170.3c0-5.4 4.3-9.7 9.7-9.7s9.7 4.4 9.7 9.7zm52.4 0c0 5.4-4.3 9.7-9.7 9.7s-9.7-4.3-9.7-9.7v-134.1c0-5.4 4.3-9.7 9.7-9.7s9.7 4.4 9.7 9.7zm52.5 0c0 5.4-4.3 9.7-9.7 9.7s-9.7-4.3-9.7-9.7v-75.4c0-5.4 4.3-9.7 9.7-9.7s9.7 4.4 9.7 9.7zm52.4 0c0 5.4-4.3 9.7-9.7 9.7s-9.7-4.3-9.7-9.7v-2.4c0-5.4 4.3-9.7 9.7-9.7s9.7 4.3 9.7 9.7zm-157.3 303.3c0 5.4-4.3 9.7-9.7 9.7s-9.7-4.3-9.7-9.7v-224.6c0-5.4 4.3-9.7 9.7-9.7s9.7 4.3 9.7 9.7zm52.4 0c0 5.4-4.3 9.7-9.7 9.7s-9.7-4.3-9.7-9.7v-224.6c0-5.4 4.3-9.7 9.7-9.7s9.7 4.3 9.7 9.7zm52.5-29.5c0 5.4-4.3 9.7-9.7 9.7s-9.7-4.3-9.7-9.7v-195c0-5.4 4.3-9.7 9.7-9.7s9.7 4.3 9.7 9.7zm52.4-97.5c0 5.4-4.3 9.7-9.7 9.7s-9.7-4.4-9.7-9.7V1410c0-5.4 4.3-9.7 9.7-9.7s9.7 4.3 9.7 9.7zm205.5-323.2h173.2v282.8H851.5z" class="st1"/><path d="M866.7 1202.5H930V1449h-63.3zm78.5 0h64.4V1449h-64.4z" class="st2"/><path d="M930 1436.4c-31 9.5-63.3 12.6-63.3 12.6H930zm63.9-233.9c3.9 3-37.1 139.2-18.4 163.4 24.9 32.3 1.2 52.7-30.4 65.2v17.9h64.4v-246.5z" class="st4"/><path d="M897.1 1317.7c0 53.9-4.1 97.6-9.2 97.6s-9.2-43.7-9.2-97.6 4.1-97.6 9.2-97.6c5.1-.1 9.2 43.6 9.2 97.6" class="st5"/><path d="M851.5 1547.8h173.2v282.8H851.5z" class="st1"/><path d="M866.7 1565.9H930v246.5h-63.3zm78.5 0h64.4v246.5h-64.4z" class="st2"/><path d="M930 1799.8c-31 9.5-63.3 12.6-63.3 12.6H930zm63.9-233.9c3.9 3-37.1 139.2-18.4 163.4 24.9 32.3 1.2 52.7-30.4 65.2v17.9h64.4v-246.5z" class="st4"/><path d="M897.1 1681.1c0 53.9-4.1 97.6-9.2 97.6s-9.2-43.7-9.2-97.6 4.1-97.6 9.2-97.6 9.2 43.7 9.2 97.6" class="st5"/><path d="M1116.4 1184.3h173.2v282.8h-173.2z" class="st1"/><path d="M1131.6 1202.5h63.3V1449h-63.3zm78.5 0h64.4V1449h-64.4z" class="st2"/><path d="M1194.9 1436.4c-31 9.5-63.3 12.6-63.3 12.6h63.3zm64-233.9c3.9 3-37.1 139.2-18.4 163.4 24.9 32.3 1.2 52.7-30.4 65.2v17.9h64.4v-246.5z" class="st4"/><path d="M1162.1 1317.7c0 53.9-4.1 97.6-9.2 97.6s-9.2-43.7-9.2-97.6 4.1-97.6 9.2-97.6c5.1-.1 9.2 43.6 9.2 97.6" class="st5"/><path d="M1116.4 1547.8h173.2v282.8h-173.2z" class="st1"/><path d="M1131.6 1565.9h63.3v246.5h-63.3zm78.5 0h64.4v246.5h-64.4z" class="st2"/><path d="M1194.9 1799.8c-31 9.5-63.3 12.6-63.3 12.6h63.3zm64-233.9c3.9 3-37.1 139.2-18.4 163.4 24.9 32.3 1.2 52.7-30.4 65.2v17.9h64.4v-246.5z" class="st4"/><path d="M1162.1 1681.1c0 53.9-4.1 97.6-9.2 97.6s-9.2-43.7-9.2-97.6 4.1-97.6 9.2-97.6 9.2 43.7 9.2 97.6" class="st5"/><path d="M1381.4 1184.3h173.2v282.8h-173.2z" class="st1"/><path d="M1396.5 1202.5h63.3V1449h-63.3zm78.5 0h64.4V1449H1475z" class="st2"/><path d="M1459.8 1436.4c-31 9.5-63.3 12.6-63.3 12.6h63.3zm64-233.9c3.9 3-37.1 139.2-18.4 163.4 24.9 32.3 1.2 52.7-30.4 65.2v17.9h64.4v-246.5z" class="st4"/><path d="M1427 1317.7c0 53.9-4.1 97.6-9.2 97.6s-9.2-43.7-9.2-97.6 4.1-97.6 9.2-97.6c5.1-.1 9.2 43.6 9.2 97.6" class="st5"/><path d="M1381.4 1547.8h173.2v282.8h-173.2z" class="st1"/><path d="M1396.5 1565.9h63.3v246.5h-63.3zm78.5 0h64.4v246.5H1475z" class="st2"/><path d="M1459.8 1799.8c-31 9.5-63.3 12.6-63.3 12.6h63.3zm64-233.9c3.9 3-37.1 139.2-18.4 163.4 24.9 32.3 1.2 52.7-30.4 65.2v17.9h64.4v-246.5z" class="st4"/><path d="M1427 1681.1c0 53.9-4.1 97.6-9.2 97.6s-9.2-43.7-9.2-97.6 4.1-97.6 9.2-97.6 9.2 43.7 9.2 97.6" class="st5"/><path d="M728.7 1509.8c0 198-5.3 358.6-11.8 358.6s-11.8-160.5-11.8-358.6 5.3-358.6 11.8-358.6 11.8 160.6 11.8 358.6" class="st3"/><ellipse cx="938.1" cy="1148.7" class="st3" rx="86.6" ry="10.3"/><path d="M1289.6 1148.7c0 5.7-38.8 10.3-86.6 10.3s-86.6-4.6-86.6-10.3 38.8-10.3 86.6-10.3c47.9-.1 86.6 4.5 86.6 10.3" class="st3"/><ellipse cx="1468" cy="1148.7" class="st3" rx="86.6" ry="10.3"/><path d="M528.7 896.1c-13.2 16.8-31 24.9-39.8 18s-5.2-26.1 8-42.9 31-24.9 39.8-18 5.2 26.1-8 42.9" style="fill:#fff"/><path d="M566.6 457.9c0 28.4-2.6 51.5-5.8 51.5s-5.8-23-5.8-51.5c0-28.4 2.6-51.5 5.8-51.5 3.1.1 5.8 23.1 5.8 51.5" class="st3"/><path d="M665.2 1092.8c0 7.5-48.1 13.6-107.5 13.6s-107.5-6.1-107.5-13.6 48.1-13.6 107.5-13.6c59.3 0 107.5 6.1 107.5 13.6m0 762c0 7.5-48.1 13.6-107.5 13.6s-107.5-6.1-107.5-13.6 48.1-13.6 107.5-13.6c59.3 0 107.5 6.1 107.5 13.6" class="st0"/></svg>